<svg id="Warstwa_1" data-name="Warstwa 1" xmlns="http://www.w3.org/2000/svg" viewBox="0 0 109 124.2"><defs><style>.cls-1{fill:#5b4282;}</style></defs><title>bootstrap</title><path class="cls-1" d="M9.5,112.6h4.2a8.17,8.17,0,0,1,4.1.8,2.72,2.72,0,0,1,1.3,2.6,3.17,3.17,0,0,1-.6,2,2.37,2.37,0,0,1-1.5.9V119a2.56,2.56,0,0,1,1.8,1.1,4.34,4.34,0,0,1,.6,2.1,3.47,3.47,0,0,1-1.3,2.9,5.7,5.7,0,0,1-3.6,1h-5C9.5,126,9.5,112.6,9.5,112.6Zm2.9,5.3H14a2.67,2.67,0,0,0,1.7-.4,1.36,1.36,0,0,0,.5-1.2,1.15,1.15,0,0,0-.6-1.1,4.18,4.18,0,0,0-1.8-.3H12.3C12.4,114.9,12.4,117.9,12.4,117.9Zm0,2.2v3.5h1.8a2.5,2.5,0,0,0,1.7-.4,1.68,1.68,0,0,0,.6-1.4c0-1.1-.8-1.7-2.4-1.7H12.4Zm21.9-.8a7.26,7.26,0,0,1-1.6,5.1,6.1,6.1,0,0,1-4.7,1.8,6.1,6.1,0,0,1-4.7-1.8,7.26,7.26,0,0,1-1.6-5.1,6.86,6.86,0,0,1,1.7-5.1,6.25,6.25,0,0,1,4.7-1.8,6.1,6.1,0,0,1,4.7,1.8A7.94,7.94,0,0,1,34.3,119.3Zm-9.8,0a5.51,5.51,0,0,0,.9,3.4,2.84,2.84,0,0,0,2.5,1.1c2.3,0,3.4-1.5,3.4-4.5s-1.1-4.5-3.4-4.5a3.31,3.31,0,0,0-2.6,1.1A5.35,5.35,0,0,0,24.5,119.3Zm24.7,0a7.26,7.26,0,0,1-1.6,5.1,6.1,6.1,0,0,1-4.7,1.8,6.1,6.1,0,0,1-4.7-1.8,7.26,7.26,0,0,1-1.6-5.1,6.86,6.86,0,0,1,1.7-5.1,6.25,6.25,0,0,1,4.7-1.8,6.1,6.1,0,0,1,4.7,1.8A7.94,7.94,0,0,1,49.2,119.3Zm-9.8,0a5.51,5.51,0,0,0,.9,3.4,2.84,2.84,0,0,0,2.5,1.1c2.3,0,3.4-1.5,3.4-4.5s-1.1-4.5-3.4-4.5a3.31,3.31,0,0,0-2.6,1.1A5.35,5.35,0,0,0,39.4,119.3ZM57.1,126H54.3V115H50.7v-2.4H60.8V115H57.2v11H57.1Zm13.6-3.8a3.47,3.47,0,0,1-1.3,2.9,5.7,5.7,0,0,1-3.6,1,9.21,9.21,0,0,1-3.8-.8v-2.6c0.9,0.4,1.7.7,2.3,0.9a5.24,5.24,0,0,0,1.7.2,2,2,0,0,0,1.4-.4,1.29,1.29,0,0,0,.5-1.1,1.45,1.45,0,0,0-.2-0.7,3.39,3.39,0,0,0-.6-0.6,11.18,11.18,0,0,0-1.7-.9,11.82,11.82,0,0,1-1.8-1.1,10.59,10.59,0,0,1-1-1.2,4.19,4.19,0,0,1-.4-1.6,3.49,3.49,0,0,1,1.2-2.8,4.83,4.83,0,0,1,3.3-1,12.31,12.31,0,0,1,2,.2,9.61,9.61,0,0,1,2,.7l-0.9,2.2a9.42,9.42,0,0,0-1.8-.6,6.75,6.75,0,0,0-1.4-.2,1.59,1.59,0,0,0-1.2.4,1.28,1.28,0,0,0-.4,1,1.45,1.45,0,0,0,.2.7,1,1,0,0,0,.6.5c0.3,0.1.9,0.5,1.8,0.9a7.23,7.23,0,0,1,2.6,1.8A3.29,3.29,0,0,1,70.7,122.2Zm7.6,3.8H75.5V115H71.9v-2.4H82V115H78.4C78.3,114.9,78.3,126,78.3,126Zm8.5-5.2v5.1H84V112.5h3.9a6.2,6.2,0,0,1,4,1,3.54,3.54,0,0,1,1.3,3,3.59,3.59,0,0,1-2.4,3.5c2,3,3.3,4.9,3.9,5.8H91.6l-3.2-5.1-1.6.1h0Zm0-2.3h0.9a3.52,3.52,0,0,0,2-.4,1.68,1.68,0,0,0,.6-1.4,1.51,1.51,0,0,0-.7-1.4,3.52,3.52,0,0,0-2-.4H86.7C86.8,114.9,86.8,118.5,86.8,118.5Zm17.7,7.5-1-3.2H98.6l-1,3.2H94.5l4.7-13.4h3.5l4.7,13.4h-2.9Zm-1.7-5.6c-0.9-2.9-1.4-4.5-1.5-4.9a5.07,5.07,0,0,1-.2-0.9c-0.2.8-.8,2.7-1.7,5.8h3.4Zm15.7-3.6a4.16,4.16,0,0,1-1.3,3.3,5.56,5.56,0,0,1-3.8,1.1h-1.2V126h-2.8V112.6h4.3a5.63,5.63,0,0,1,3.7,1A4.9,4.9,0,0,1,118.5,116.8Zm-6.4,2.1H113a3.68,3.68,0,0,0,2-.5,1.53,1.53,0,0,0,.6-1.5,2.07,2.07,0,0,0-.5-1.5,2.65,2.65,0,0,0-1.7-.5h-1.3v4h0ZM74,56.8c-2-.7-4.8-0.8-8.6-0.8H52V76H66.4a28.9,28.9,0,0,0,5.3-.4,11.43,11.43,0,0,0,4.5-1.7,8.77,8.77,0,0,0,3-3.3,10,10,0,0,0,1.2-5A9.53,9.53,0,0,0,78.7,60,9.06,9.06,0,0,0,74,56.8Zm-2.1-8.7a8.2,8.2,0,0,0,4.5-3,8.65,8.65,0,0,0,1.5-5.2,10.11,10.11,0,0,0-1.4-5.2,6.75,6.75,0,0,0-4-3,35.47,35.47,0,0,0-8.9-.8H52v18H64.5A22.44,22.44,0,0,0,71.9,48.1Zm45.1-32A14.08,14.08,0,0,0,102.9,2H25.1A14.08,14.08,0,0,0,11,16.1V93.8a14.08,14.08,0,0,0,14.1,14.1h77.7a14.08,14.08,0,0,0,14.1-14.1V16.1H117ZM86.6,73.3a15.31,15.31,0,0,1-4.3,5.5,18.2,18.2,0,0,1-6.4,3.1,35.84,35.84,0,0,1-9.4,1.2H44V24H66.1a27,27,0,0,1,10.8,1.8,14.26,14.26,0,0,1,6.4,5.5A14.68,14.68,0,0,1,85.6,39a13.86,13.86,0,0,1-2,7.1,15,15,0,0,1-6.2,5.4,15.31,15.31,0,0,1,8.2,5.3,14.39,14.39,0,0,1,2.9,8.9A21.8,21.8,0,0,1,86.6,73.3Z" transform="translate(-9.5 -2)"/></svg>