<svg id="Warstwa_1" data-name="Warstwa 1" xmlns="http://www.w3.org/2000/svg" viewBox="0 0 110.48 125.3"><defs><style>.cls-1{fill:#1572b6;}.cls-2{fill:#33a9dc;}.cls-3{fill:#fff;}.cls-4{fill:#ebebeb;}</style></defs><title>css</title><path class="cls-1" d="M18.81,114.12L8.76,1.35H119.24L109.18,114.11,63.93,126.65Z" transform="translate(-8.76 -1.35)"/><path class="cls-2" d="M64,117.06l36.56-10.14,8.6-96.35H64V117.06Z" transform="translate(-8.76 -1.35)"/><path class="cls-3" d="M64,51.43H82.3l1.26-14.16H64V23.43H98.68l-0.33,3.71L95,65.26H64V51.43Z" transform="translate(-8.76 -1.35)"/><path class="cls-4" d="M64.08,87.35l-0.06,0-15.4-4.16-1-11H33.75l1.94,21.72L64,101.76l0.06,0V87.35Z" transform="translate(-8.76 -1.35)"/><path class="cls-3" d="M81.13,64.68L79.46,83.2,64,87.36v14.39l28.35-7.86,0.21-2.34L95,64.68H81.13Z" transform="translate(-8.76 -1.35)"/><path class="cls-4" d="M64,23.43V37.27H30.64l-0.28-3.11-0.63-7L29.4,23.43H64Zm0,28V65.26H48.79l-0.28-3.11-0.63-7-0.33-3.71H64Z" transform="translate(-8.76 -1.35)"/></svg>