<svg id="Warstwa_1" data-name="Warstwa 1" xmlns="http://www.w3.org/2000/svg" viewBox="0 0 126.24 126.23"><defs><style>.cls-1{fill:#f34f29;}</style></defs><title>git</title><path class="cls-1" d="M124.74,58.38L69.62,3.26a8.13,8.13,0,0,0-11.5,0L46.68,14.71,61.2,29.23A9.65,9.65,0,0,1,73.42,41.53l14,14A9.66,9.66,0,1,1,81.62,61l-13-13V82.27a9.65,9.65,0,1,1-8-.28V47.33a9.68,9.68,0,0,1-5.25-12.69L41.06,20.33,3.26,58.12a8.13,8.13,0,0,0,0,11.5l55.12,55.11a8.13,8.13,0,0,0,11.5,0l54.86-54.86A8.13,8.13,0,0,0,124.74,58.38Z" transform="translate(-0.88 -0.88)"/></svg>