<svg id="Warstwa_1" data-name="Warstwa 1" xmlns="http://www.w3.org/2000/svg" viewBox="0 0 127.34 126.49"><title>github</title><path d="M64,1.51A42.55,42.55,0,0,0,50.55,84.43c2.13,0.39,2.91-.92,2.91-2s0-4.37-.06-7.92c-11.84,2.57-14.33-5-14.33-5-1.94-4.92-4.72-6.23-4.72-6.23-3.86-2.64.29-2.59,0.29-2.59C38.9,60.93,41.15,65,41.15,65c3.79,6.5,10,4.62,12.38,3.54a9.07,9.07,0,0,1,2.7-5.69c-9.45-1.08-19.38-4.72-19.38-21a16.47,16.47,0,0,1,4.38-11.42c-0.44-1.07-1.9-5.4.41-11.26,0,0,3.57-1.14,11.7,4.36a40.35,40.35,0,0,1,21.31,0c8.12-5.5,11.69-4.36,11.69-4.36,2.32,5.86.86,10.19,0.42,11.26a16.43,16.43,0,0,1,4.38,11.42c0,16.34-10,19.94-19.43,21,1.53,1.32,2.89,3.91,2.89,7.88,0,5.69,0,10.27,0,11.67,0,1.13.77,2.46,2.92,2A42.55,42.55,0,0,0,64,1.51Z" transform="translate(-0.33 -1.51)"/><path d="M37.57,62.6A0.65,0.65,0,1,1,37.19,62a0.54,0.54,0,0,1,.38.64h0Zm1.72,1.92a0.79,0.79,0,1,1-.12-0.88,0.64,0.64,0,0,1,.12.88h0ZM41,67a0.75,0.75,0,0,1-1-.37,0.74,0.74,0,0,1,0-1A0.89,0.89,0,0,1,41,67h0Zm2.3,2.37a0.8,0.8,0,0,1-1.09-.16A0.68,0.68,0,1,1,43,68.25a0.8,0.8,0,0,1,.23,1.09h0Zm3.17,1.37a1,1,0,0,1-1.76-.53,1,1,0,0,1,1.76.53h0ZM49.92,71a0.8,0.8,0,0,1-.9.65,0.68,0.68,0,1,1,0-1.27A0.81,0.81,0,0,1,49.92,71Zm3.24-.55a1,1,0,1,1-1-.46,0.82,0.82,0,0,1,1,.46h0Z" transform="translate(-0.33 -1.51)"/><path d="M24.85,108.3H14.15a0.5,0.5,0,0,0-.5.5V114a0.5,0.5,0,0,0,.5.5h4.17V121a12.63,12.63,0,0,1-3.53.32c-3.06,0-7.33-1.12-7.33-10.51s4.45-10.63,8.62-10.63a16.92,16.92,0,0,1,6.16.94,0.51,0.51,0,0,0,.6-0.49l1.19-5.06a0.47,0.47,0,0,0-.19-0.39c-0.4-.29-2.86-1.66-9.06-1.66-7.14,0-14.47,3-14.47,17.65S8.72,128,15.79,128a17.4,17.4,0,0,0,9.4-2.5,0.43,0.43,0,0,0,.16-0.38V108.8a0.5,0.5,0,0,0-.5-0.5h0ZM79.51,94.81h-6a0.5,0.5,0,0,0-.5.5h0V107H63.59V95.31a0.5,0.5,0,0,0-.5-0.5h-6a0.5,0.5,0,0,0-.5.5h0v31.53a0.5,0.5,0,0,0,.5.5h6a0.5,0.5,0,0,0,.5-0.5h0V113.36H73l0,13.49a0.5,0.5,0,0,0,.5.5h6a0.5,0.5,0,0,0,.5-0.5h0V95.31A0.5,0.5,0,0,0,79.51,94.81Zm-47.17.72a3.92,3.92,0,1,0,3.88,3.92A3.9,3.9,0,0,0,32.34,95.53Zm3,9.61h-6a0.57,0.57,0,0,0-.52.56v20.85a0.74,0.74,0,0,0,.88.79h5.41a0.65,0.65,0,0,0,.74-0.81v-20.9a0.5,0.5,0,0,0-.5-0.5h0Zm67.61,0h-6a0.5,0.5,0,0,0-.5.5h0v15.46a6.76,6.76,0,0,1-3.68,1.11c-2.16,0-2.73-1-2.73-3.09V105.69a0.5,0.5,0,0,0-.5-0.5H83.46a0.5,0.5,0,0,0-.5.5v14.5c0,6.27,3.5,7.8,8.3,7.8a14,14,0,0,0,7.12-2.18,12.18,12.18,0,0,0,.22,1.29,0.53,0.53,0,0,0,.44.27l3.86,0a0.5,0.5,0,0,0,.5-0.5h0V105.68a0.5,0.5,0,0,0-.5-0.5h0Zm16.34-.71a11.24,11.24,0,0,0-5.71,1.51V95.31a0.5,0.5,0,0,0-.5-0.5h-6a0.5,0.5,0,0,0-.5.5h0v31.53a0.5,0.5,0,0,0,.5.5h4.2a0.5,0.5,0,0,0,.44-0.27,10,10,0,0,0,.25-1.45A10.81,10.81,0,0,0,119,128c5.49,0,8.64-2.78,8.64-12.5s-5-11-8.43-11h0Zm-2.36,17.76a7.17,7.17,0,0,1-3.48-1v-10a8,8,0,0,1,3.09-1c2.15-.19,4.23.46,4.23,5.59,0,5.42-.93,6.49-3.84,6.4h0Zm-63.69-.12c-0.26,0-.94.11-1.63,0.11-2.22,0-3-1-3-2.37V111h4.52a0.5,0.5,0,0,0,.5-0.5h0v-4.86a0.5,0.5,0,0,0-.5-0.5H48.59v-6a0.31,0.31,0,0,0-.38-0.34H42a0.31,0.31,0,0,0-.37.33v6.17l-3.29.81a0.5,0.5,0,0,0-.36.48v3.88a0.5,0.5,0,0,0,.5.5h3.16v9.33c0,6.93,4.86,7.61,8.14,7.61a13.73,13.73,0,0,0,3.59-.59,0.47,0.47,0,0,0,.28-0.45v-4.26a0.51,0.51,0,0,0-.5-0.5h0Z" transform="translate(-0.33 -1.51)"/></svg>