<svg id="Warstwa_1" data-name="Warstwa 1" xmlns="http://www.w3.org/2000/svg" viewBox="0 0 109.94 124.68"><defs><style>.cls-1{fill:#e44d26;}.cls-2{fill:#f16529;}.cls-3{fill:#ebebeb;}.cls-4{fill:#fff;}</style></defs><title>html</title><path class="cls-1" d="M19,113.88L9,1.66H119l-10,112.2-45,12.48Z" transform="translate(-9.03 -1.66)"/><path class="cls-2" d="M64,116.8l36.38-10.09,8.56-95.88H64v106Z" transform="translate(-9.03 -1.66)"/><path class="cls-3" d="M64,52.46H45.79L44.53,38.36H64V24.6H29.49l0.33,3.69L33.2,66.22H64V52.46ZM64,88.2l-0.06,0L48.61,84.07l-1-11H33.82l1.93,21.61,28.19,7.83,0.06,0V88.2Z" transform="translate(-9.03 -1.66)"/><path class="cls-4" d="M64,52.46V66.22H80.9L79.3,84.07,64,88.21v14.32l28.22-7.82,0.21-2.32,3.23-36.23,0.33-3.7H64ZM64,24.6V38.36H97.2l0.28-3.09,0.63-7,0.33-3.69H64Z" transform="translate(-9.03 -1.66)"/></svg>