<svg id="Warstwa_1" data-name="Warstwa 1" xmlns="http://www.w3.org/2000/svg" viewBox="0 0 115.45 121.96"><defs><style>.cls-1{fill:#0868ac;}.cls-2{fill:#131b28;}</style></defs><title>jquery</title><path class="cls-1" d="M27.76,20.42C20.41,31,21.32,44.73,26.94,56l0.41,0.8,0.26,0.51,0.16,0.29,0.29,0.52L28.6,59l0.31,0.5,0.62,1,0.26,0.41c0.29,0.44.59,0.87,0.9,1.3l0,0,0.15,0.21c0.27,0.37.54,0.73,0.82,1.09L32,63.91l0.76,0.93,0.29,0.35c0.35,0.41.7,0.81,1.06,1.21l0,0,0,0c0.35,0.38.71,0.76,1.08,1.13l0.34,0.35,0.86,0.84,0.35,0.33c0.39,0.36.78,0.72,1.18,1.07l0,0,0.21,0.17,1.07,0.9,0.44,0.35,0.89,0.7,0.48,0.36,1,0.72,0.36,0.26,0.1,0.07,1,0.64,0.42,0.28c0.5,0.32,1,.63,1.52.93l0.42,0.24L47,76.47l0.63,0.33,0.82,0.42,0.19,0.09L49,77.47l1.29,0.6,0.27,0.12q0.75,0.33,1.51.63L52.42,79l1.42,0.53L54,79.55c0.52,0.18,1.05.35,1.59,0.52L56,80.19a15.49,15.49,0,0,0,1.64.46c35.55,6.48,45.88-21.36,45.88-21.36-8.67,11.3-24.07,14.28-38.66,11-0.55-.12-1.09-0.3-1.63-0.46l-0.41-.12q-0.79-.24-1.57-0.51L61,69.08l-1.38-.51-0.39-.15c-0.5-.2-1-0.4-1.49-0.62l-0.3-.13-1.26-.58-0.36-.18-1-.5-0.65-.34c-0.4-.21-0.78-0.43-1.17-0.65l-0.39-.22q-0.77-.45-1.52-0.93L50.74,64l-1.08-.72L49.31,63l-1-.74-0.45-.34-0.92-.72-0.41-.33q-0.58-.48-1.15-1l-0.13-.1c-0.41-.36-0.81-0.73-1.21-1.1l-0.34-.33c-0.29-.28-0.58-0.56-0.87-0.85l-0.34-.34q-0.54-.55-1.06-1.13L41.36,56c-0.37-.4-0.73-0.81-1.08-1.23L40,54.45l-0.78-1-0.28-.35c-0.31-.4-0.6-0.79-0.9-1.19-8.1-11-11-26.28-4.53-38.79m17.08-1.63c-5.32,7.65-5,17.89-.88,26A33.75,33.75,0,0,0,52,41.43a18.59,18.59,0,0,0,2.74,3.42c0.38,0.42.78,0.83,1.19,1.24l0.31,0.31c0.4,0.38.8,0.76,1.22,1.13l0,0h0C58,48,58.51,48.37,59,48.76L59.32,49c0.49,0.37,1,.74,1.49,1.09l0,0,0.68,0.45,0.32,0.21c0.36,0.23.73,0.46,1.1,0.68l0.16,0.09,1,0.54,0.35,0.18,0.68,0.35,0.1,0c0.47,0.23.94,0.45,1.42,0.66L67,53.48,68.13,54l0.5,0.18,1.07,0.37,0.48,0.15a12,12,0,0,0,1.55.45c27.45,4.55,33.79-16.59,33.79-16.59-5.71,8.23-16.78,12.15-28.58,9.09q-0.79-.21-1.56-0.45L74.91,47l-1.09-.37-0.49-.18L72.17,46l-0.32-.13q-0.73-.32-1.43-0.67l-0.72-.37-0.41-.21-0.91-.51L68.16,44c-0.37-.22-0.74-0.44-1.1-0.67l-0.33-.22L66,42.6c-0.51-.35-1-0.71-1.48-1.08l-0.33-.26A33.09,33.09,0,0,1,53,25.28,24.79,24.79,0,0,1,54.92,5.39m14.85-.52A16,16,0,0,0,68.5,20.3,21.73,21.73,0,0,0,81,32l0.68,0.24,0.3,0.1a8.33,8.33,0,0,0,1,.28c15.16,2.93,19.27-7.78,20.36-9.35-3.6,5.18-9.65,6.43-17.08,4.63-0.59-.14-1.23-0.35-1.8-0.56a22.3,22.3,0,0,1-2.13-.89,22.19,22.19,0,0,1-3.74-2.28c-6.64-5-10.77-14.66-6.44-22.49" transform="translate(-6.27 -1.63)"/><path class="cls-2" d="M66.36,96.29H62.13a0.56,0.56,0,0,0-.52.42l-1.5,6.94-1.5,6.94a0.55,0.55,0,0,1-.52.42h-3c-3,0-2.62-2-2-4.85l0-.08,0.07-.35v-0.07l0.13-.72,0.15-.77,0.15-.79L54.31,100,55,96.71a0.34,0.34,0,0,0-.34-0.42H50.32a0.55,0.55,0,0,0-.51.42l-0.93,4.42-0.93,4.43h0l-0.09.41c-1.07,4.9-.79,9.58,5,9.73h9.33a0.55,0.55,0,0,0,.52-0.42l2-9.29,2-9.29A0.33,0.33,0,0,0,66.36,96.29Zm-45.26,0H16.46a0.56,0.56,0,0,0-.52.42L15.5,98.6l-0.44,1.94a0.33,0.33,0,0,0,.33.42h4.68a0.56,0.56,0,0,0,.52-0.42L21,98.6l0.42-1.94A0.33,0.33,0,0,0,21.1,96.25Zm-1.35,6H15.08a0.56,0.56,0,0,0-.52.42l-0.66,2.91-0.66,2.91-0.18.83-0.63,3-0.63,3c0,0.23-.15.6-0.23,0.82,0,0-.87,2.6-2.34,2.57H9.05l-1.27,0h0a0.56,0.56,0,0,0-.52.41l-0.49,2-0.48,2a0.33,0.33,0,0,0,.33.42l3.83,0c3.67,0,5.6-2,6.84-7.88L18.73,109l1.36-6.3A0.33,0.33,0,0,0,19.76,102.29Zm86.12-1.57-0.19-.8-0.19-.82-0.1-.41c-0.38-1.48-1.5-2.33-3.92-2.33H90.33a0.55,0.55,0,0,0-.51.42l-0.17.82-0.2,1-0.06.27-1.76,8.24-1.67,7.82a1.83,1.83,0,0,0,0,.63,1.1,1.1,0,0,0,.71.21h3.52a2.21,2.21,0,0,0,.66-0.09,1.52,1.52,0,0,0,.36-0.74l0.63-3.1,0.63-3.1h0l0.08-.41,0.76-3.56,0.67-3.14a0.55,0.55,0,0,1,.51-0.42h11.09A0.32,0.32,0,0,0,105.87,100.72Zm14.28-7.24h-4.4a0.9,0.9,0,0,0-.67.35l-7.85,11.5c-0.13.19-.28,0.17-0.33-0.06l-0.58-2.53a0.56,0.56,0,0,0-.52-0.42h-5a0.3,0.3,0,0,0-.31.41l2.26,7.92a1.88,1.88,0,0,1,0,.82l-1,3.83a0.31,0.31,0,0,0,.32.41h5a0.58,0.58,0,0,0,.53-0.41l1-3.83a2.52,2.52,0,0,1,.36-0.75l12.74-16.91c0.14-.19.07-0.34-0.17-0.34h-1.34Zm-40.09,9.92h0a0.51,0.51,0,0,1-.5.44h-6.4a0.27,0.27,0,0,1-.3-0.34h0v0l0-.11a4,4,0,0,1,4.19-2.69C79.73,100.66,80.24,101.95,80.06,103.39ZM78.19,96C70,96,68,101,66.94,106s-1,9.92,7.5,9.92h2.38l5.41,0a0.55,0.55,0,0,0,.51-0.42l0.34-1.68,0.07-.33,0.41-2a0.34,0.34,0,0,0-.34-0.42H75.58c-3,0-3.94-.81-3.61-3.18H84.19a0.5,0.5,0,0,0,.44-0.32l0-.11h0C86.47,100.62,86,96,78.19,96Zm-38.81,7.36-0.12.41h0L38.34,107l-0.92,3.27a0.6,0.6,0,0,1-.54.41H32c-3.7,0-4.6-2.9-3.7-7.17S31,96.48,34.6,96.2C39.58,95.82,40.58,99.33,39.38,103.37Zm3.35,7.11a54.73,54.73,0,0,0,2.82-8.81c0.71-4.32-1.45-10.58-9.8-10.58s-11.91,6-13.29,12.48,0.43,12.29,8.69,12.25l6.52,0,6.09,0a0.59,0.59,0,0,0,.53-0.41l1.06-4a0.32,0.32,0,0,0-.32-0.42H43a0.26,0.26,0,0,1-.29-0.3Zm41.12-3.74a0.28,0.28,0,1,1-.28-0.28A0.28,0.28,0,0,1,83.84,106.73Z" transform="translate(-6.27 -1.63)"/></svg>