<svg id="Warstwa_1" data-name="Warstwa 1" xmlns="http://www.w3.org/2000/svg" viewBox="0 0 126 59.41"><defs><style>.cls-1{fill:#2a4d80;}</style></defs><title>less</title><path class="cls-1" d="M122.3,58.63a11.62,11.62,0,0,1-1-4.28c-0.15-3.56,0-7.14-.18-10.7-0.14-3.19-1.28-6.06-4.34-7.71-2.7-1.45-5.82-1.59-8.82-1.62V40a6,6,0,0,1,1,.08c4,0.2,5.38,1.48,5.43,5.47,0,3,0,5.95.06,8.92,0.06,3.6.6,7,3.89,9.32a0.77,0.77,0,0,1,.08.35A7.65,7.65,0,0,0,115.07,69a34.53,34.53,0,0,0-.54,5.15c-0.1,3.12,0,6.24-.09,9.36-0.07,2.44-1.23,3.59-3.6,4.13C109.95,87.83,109,87.9,108,88V93.7c2-.12,3-0.2,4.39-0.35,5.16-.56,8.06-3.24,8.65-8.24,0.19-1.57.17-3.17,0.2-4.75,0.07-3,0-6,.3-8.9S124,66.79,127,67V61A4.17,4.17,0,0,1,122.3,58.63Zm-94,12.13c0-11.55-.31-23.1-0.31-34.65V34.3c-3,0-6.23,0-9.39,0a29.09,29.09,0,0,0-3.69.3c-4.88.66-7.23,3-8.09,7.81a26.78,26.78,0,0,0-.22,4.29c0,2.73,0,5.45,0,8.18C6.54,58.33,4.93,61,1.43,61.2,1.3,61.2,2,61.35,1,61.43v5.3c4,0.63,5.27,2.24,5.54,6,0,0.59.05,1.19,0.06,1.78,0,3.32,0,6.64.15,10,0.14,3.09.83,5.86,3.75,7.48,2.73,1.52,6.5,1.64,8.5,1.72V88a0.65,0.65,0,0,0-.41-0.1c-4.34-.26-5.32-1.44-5.34-5.79,0-2.87.11-5.75,0.06-8.62-0.06-3.61-.59-7-3.86-9.32a1.08,1.08,0,0,1,0-.38,8,8,0,0,0,3.69-6.09,40.84,40.84,0,0,0,.26-4.3c0.05-3,0-5.95.08-8.92a4,4,0,0,1,3.09-4A33,33,0,0,1,22,40v2.06C22,52.39,21.63,62.7,21.69,73c0,3.53.41,7,4.19,8.54a46.19,46.19,0,0,0,6.63,1.64c0.4-2.31.52-4.23,0.85-6.13C29,75.81,28.31,75.16,28.31,70.77ZM55,50.88A14.7,14.7,0,0,0,35.32,57.8a20.51,20.51,0,0,0-.22,16.87,12.1,12.1,0,0,0,6.47,6.67c5.9,2.62,11.88,2,17.83.14a1.31,1.31,0,0,0,.69-1c-0.2-1.66-.54-3.31-0.84-5-1.42.36-2.6,0.72-3.81,0.95a16.81,16.81,0,0,1-9.51-.64A7.52,7.52,0,0,1,41.32,68H62.19a25.53,25.53,0,0,0-1.12-10.54A11.39,11.39,0,0,0,55,50.87h0Zm0,12.13H41.23a7.5,7.5,0,0,1,7.54-7.51C52.52,55.56,55.11,59,54.94,63Zm56.11,12.28c0.49-5.05-1-7.9-5.53-10.09-1.6-.78-3.29-1.36-4.92-2.08A32.44,32.44,0,0,1,97,61.34a2.94,2.94,0,0,1-1.41-3.06,2.62,2.62,0,0,1,2.17-2.36,15.92,15.92,0,0,1,4.39-.42c2,0.17,4.06.69,6.16,1.08l1.33-5.82c-2.85-.43-5.51-1-8.19-1.21a15.81,15.81,0,0,0-8.63,1.67c-5.78,3-5.88,12.12-.57,15.12,1.59,0.9,3.28,1.6,4.93,2.38s3.54,1.55,5.2,2.5a3,3,0,0,1,1.38,3.47,2.67,2.67,0,0,1-2.58,2.11,26.61,26.61,0,0,1-5.61.13,66.53,66.53,0,0,1-6.66-1.45l-1.16,5.79a27.4,27.4,0,0,0,15.94,1.15c4.46-1,7-3.6,7.34-7.13h0ZM82.64,65.83c-2-1-4.07-1.8-6.09-2.72a21.55,21.55,0,0,1-3.69-1.87A2.89,2.89,0,0,1,73.61,56a12.23,12.23,0,0,1,4.52-.48,61.26,61.26,0,0,1,6.16,1.06L85.55,51c-1.08-.29-2.05-0.61-3.05-0.82-4-.84-8-1.16-11.87.22-3.36,1.18-5.69,3.39-6.15,7.11-0.52,4.15.86,7.43,4.7,9.4,1.54,0.79,3.18,1.36,4.75,2.1a41.35,41.35,0,0,1,4.61,2.34,2.87,2.87,0,0,1,1.24,3.25,2.7,2.7,0,0,1-2.53,2.17,26,26,0,0,1-5.61.15,66.66,66.66,0,0,1-6.71-1.46c-0.34,1.61-.74,3.24-1,4.89a1.41,1.41,0,0,0,.68,1.16A26.25,26.25,0,0,0,80.94,82c3.27-1,5.56-3.05,6-6.62C87.48,71.37,86.51,67.88,82.64,65.83Z" transform="translate(-1 -34.3)"/></svg>