<svg id="Warstwa_1" data-name="Warstwa 1" xmlns="http://www.w3.org/2000/svg" viewBox="0 0 126 126.28"><defs><style>.cls-1{fill:#80b5e2;}</style></defs><title>photoshop</title><path class="cls-1" d="M126.22,0.73H17.71c-5.18,0-10.45,0-15.63,0A2.61,2.61,0,0,0,1,1V127H127V1A1.13,1.13,0,0,0,126.22.73ZM113.48,114.67q-49-.06-97.91,0c-1.58,0-1.57,0-1.57-1.63V15.21C14,13.61,14,14,15.58,14h97.8c1.64,0,1.63-.4,1.63,1.29V64.13q0,24.48,0,49C115,114.33,114.75,114.67,113.48,114.67Zm-56.66-75c-6.67-1.56-13.38-.79-20.08-0.11-1.42.15-1.69,0.76-1.69,2,0,15.21,0,30.41,0,45.62V88h9V70.14c5,0.38,9.58.29,14-1.31,7.17-2.56,10.75-8.11,10.37-16.22C68.1,46.06,64,41.32,56.82,39.64ZM54.87,62c-3.19,1.56-6.59,1.52-10,1.06a1.07,1.07,0,0,1-.68-0.78c0-5.33,0-10.66,0-16.14a22.44,22.44,0,0,1,9.06,0,7.6,7.6,0,0,1,6.2,6.92C59.85,57,58.17,60.38,54.87,62Zm33.3,7.11c-1.47-.81-3.08-1.35-4.61-2.05s-2.83-1.3-4.17-2.08A2.84,2.84,0,0,1,78,62.35a3.54,3.54,0,0,1,3.5-3.6,19.06,19.06,0,0,1,5,.34,28.35,28.35,0,0,1,4.08,1.4l1.77-6.27a21.3,21.3,0,0,0-10.29-2.11,15.42,15.42,0,0,0-8.35,2.6c-4.74,3.23-7.06,11.81.05,16.42A50.74,50.74,0,0,0,79.64,74c1.22,0.58,2.49,1.08,3.64,1.77A3.63,3.63,0,0,1,85,79.68a3.26,3.26,0,0,1-2.84,2.87A15.88,15.88,0,0,1,77,82.7a65.83,65.83,0,0,1-7-2c-0.43,1.59-.83,3.35-1.38,5.06a1.18,1.18,0,0,0,.79,1.77,24,24,0,0,0,17.08.72c4.3-1.47,6.92-4.52,7.26-9.17S92.09,71.24,88.17,69.09Z" transform="translate(-1 -0.72)"/></svg>