<svg id="Warstwa_1" data-name="Warstwa 1" xmlns="http://www.w3.org/2000/svg" viewBox="0 0 125.55 93.9"><defs><style>.cls-1{fill:#cb6699;}</style></defs><title>sass</title><path class="cls-1" d="M1.22,56.16a5.54,5.54,0,0,0,.32,1.62,19.88,19.88,0,0,0,4.31,7.75A51.07,51.07,0,0,0,15.4,73.9c3,2.15,6,4.25,9,6.38,0.51,0.37,1,.79,1.56,1.24-0.48.26-.88,0.49-1.3,0.7a69.42,69.42,0,0,0-11.28,7,23.07,23.07,0,0,0-5.61,5.67c-2.33,3.67-3.15,7.58-1.41,11.76a6.94,6.94,0,0,0,2.37,3.05,3.5,3.5,0,0,0,1.16.6c1.06,0.25,2.14.41,3.21,0.61h3a18.87,18.87,0,0,0,9.17-3.35,20.11,20.11,0,0,0,8.47-12.09,21.33,21.33,0,0,0-.12-11.15c-0.1-.34-0.22-0.68-0.35-1s-0.28-.66-0.46-1.07l6.88-4,0.1,0.09c-0.12.41-.26,0.82-0.37,1.23a27.85,27.85,0,0,0-1.17,9.12,17.5,17.5,0,0,0,3.06,9.15,4.43,4.43,0,0,0,6.94.07,16,16,0,0,0,1.59-2.51c1.12-2.32,2.16-4.67,3.23-7L53.32,88c-0.08,1.11-.17,2.08-0.21,3.06a11.64,11.64,0,0,0,.54,4.48,3.09,3.09,0,0,0,2.62,2.33,3.29,3.29,0,0,0,2.46-.9,10.38,10.38,0,0,0,2.69-3.2c1.9-3.49,3.85-7,5.58-10.54,1.86-3.87,3.49-7.86,5.22-11.79l0.29-.7c0.41,1.61.69,3.18,1.22,4.67a44.15,44.15,0,0,0,2.19,5.06,1.51,1.51,0,0,1-.19,1.93c-2.26,2.72-4.47,5.47-6.69,8.22a18.47,18.47,0,0,0-1.39,1.89,3.7,3.7,0,0,0-.48,1.36,1.74,1.74,0,0,0,1.38,2,9.66,9.66,0,0,0,2.71.19,15.86,15.86,0,0,0,8.4-3.16c3.22-2.39,4.25-5.64,3.47-9.5a22.07,22.07,0,0,0-.95-3.07,1.14,1.14,0,0,1,.12-1.2A97.85,97.85,0,0,0,89.12,67.5,2.38,2.38,0,0,1,89.42,67a30,30,0,0,0,3.45,9.79c-0.91.88-1.82,1.68-2.63,2.55A17.61,17.61,0,0,0,86.07,86a7.79,7.79,0,0,0-.46,3.4A2.87,2.87,0,0,0,89.15,92,16.1,16.1,0,0,0,98.76,86a7.79,7.79,0,0,0,1.1-7.11c-0.19-.69-0.41-1.36-0.65-2.15,1-.29,1.88-0.65,2.84-0.87a25.15,25.15,0,0,1,14.7.86,11.1,11.1,0,0,1,6.41,5.57c1.64,3.38.73,6.58-2.45,8.72a5.46,5.46,0,0,0-.88.61,0.87,0.87,0,0,0-.21.67,0.67,0.67,0,0,0,.53.28,4.87,4.87,0,0,0,2.71-1.12,8.35,8.35,0,0,0,3.85-5.82l0.06-.19-0.08-1.63a0.88,0.88,0,0,1,0-.26,12.78,12.78,0,0,0-5.21-8.69,19,19,0,0,0-11.25-3.79,25.4,25.4,0,0,0-9.76,1.5c-0.9.32-1.79,0.71-2.69,1.07-0.12-.22-0.25-0.43-0.36-0.65-0.93-1.9-2-3.71-2.3-5.88a13.17,13.17,0,0,1,0-4.61c0.35-1.47.81-2.91,1.25-4.36a1.06,1.06,0,0,0-.65-1.5,2.85,2.85,0,0,0-.79-0.26,12.11,12.11,0,0,0-5.17.38A1.48,1.48,0,0,0,88.59,58c-0.08.38-.23,0.75-0.34,1.12a28.06,28.06,0,0,1-1.47,4.65c-1.79,3.74-3.84,7.33-5.94,10.9-0.23.39-.47,0.76-0.75,1.23a16.12,16.12,0,0,1-1.76-4.54,13.94,13.94,0,0,1,0-5.48c0.34-1.36.78-2.69,1.19-4A0.93,0.93,0,0,0,79,60.54a2.78,2.78,0,0,0-.95-0.37,11.64,11.64,0,0,0-5.35.44,1.45,1.45,0,0,0-1,1.09,41.92,41.92,0,0,1-1.59,4.91c-2.77,6.36-5.63,12.69-8.48,19-0.6,1.32-1.29,2.6-2,3.88a9,9,0,0,1-.63.92A0.75,0.75,0,0,1,58.83,90a13.17,13.17,0,0,1,.06-2.44c0.47-2.38,1-4.74,1.58-7.1,0.47-1.95,1-3.87,1.54-5.81a1.82,1.82,0,0,0-.29-1.8,2.69,2.69,0,0,0-3.38-.41l-0.43.24L58,72a10.75,10.75,0,0,0-.16-4.41,3.51,3.51,0,0,0-3.69-2.8,7.92,7.92,0,0,0-2.61.5,19.76,19.76,0,0,0-8.29,6.57,2.59,2.59,0,0,1-.76.65c-2.89,1.6-5.79,3.19-8.7,4.78L30.57,79c-0.87-.83-1.65-1.68-2.55-2.41-2.73-2.22-5.5-4.39-8.24-6.59a32.49,32.49,0,0,1-6.6-6.56,11.74,11.74,0,0,1-2.29-6.4,15,15,0,0,1,2.29-8.36,32.08,32.08,0,0,1,7.61-8.33,70.51,70.51,0,0,1,10-6.64,75.49,75.49,0,0,1,15.35-6.77,42.42,42.42,0,0,1,17-1.93,17.43,17.43,0,0,1,6.53,1.9,6.73,6.73,0,0,1,3.43,3.72,9.29,9.29,0,0,1,.16,5.2,19.87,19.87,0,0,1-5.19,9A35.11,35.11,0,0,1,53.69,54a39.48,39.48,0,0,1-9.76,2.08,18.39,18.39,0,0,1-8-1,10.39,10.39,0,0,1-4.4-3,0.66,0.66,0,0,0-.89-0.29,0.76,0.76,0,0,0-.33,1,9.59,9.59,0,0,0,.76,1.84,10.47,10.47,0,0,0,3.48,3.3,17,17,0,0,0,8.66,2.38,43.57,43.57,0,0,0,13.65-1.74,33.5,33.5,0,0,0,16.38-9.88c3.71-4.13,6.35-8.79,6.92-14.42a14,14,0,0,0-1.3-7.94,14.36,14.36,0,0,0-6.26-6.12A26.52,26.52,0,0,0,60.29,17H56c-5.21,0-10.25,1.49-15.14,3.27A104,104,0,0,0,30,25c-7.68,3.84-14.84,8.47-20.72,14.83A30.94,30.94,0,0,0,2.42,50.6C2,51.81,1.6,53.1,1.31,54.35m27.84,36a15.89,15.89,0,0,1-5.66,11A12.87,12.87,0,0,1,17,104.59a4.75,4.75,0,0,1-2.69-.19,2.75,2.75,0,0,1-1.55-2.81A10.18,10.18,0,0,1,14.3,96.4,18.54,18.54,0,0,1,19,91.2,72.66,72.66,0,0,1,28.3,85l0.24-.1A16.27,16.27,0,0,1,29.14,90.36ZM54.3,71a33.64,33.64,0,0,1-.94,4.23,124.67,124.67,0,0,1-5.28,14A24.1,24.1,0,0,1,46.7,91.6a1.69,1.69,0,0,1-.28.33c-0.58.57-1.13,0.54-1.42-.21A15.75,15.75,0,0,1,44.27,89a14.39,14.39,0,0,1-.13-1.9,23.78,23.78,0,0,1,3.74-12.38,11.57,11.57,0,0,1,3.6-4.05,6.27,6.27,0,0,1,1.6-.71C53.92,69.73,54.44,70.13,54.3,71ZM71.47,92.85l6.17-7.2C77.89,88.32,73.35,93.66,71.47,92.85ZM91.17,88c-0.44.25-.91,0.43-1.36,0.66s-0.54,0-.56-0.35a2.39,2.39,0,0,1,.09-0.72A15.51,15.51,0,0,1,94,80.1L94.16,80A6.61,6.61,0,0,1,91.17,88Z" transform="translate(-1.22 -17)"/></svg>