<svg id="Warstwa_1" data-name="Warstwa 1" xmlns="http://www.w3.org/2000/svg" viewBox="0 0 144.2 25"><defs><style>.cls-1{fill:none;}</style></defs><title>logo-left</title><polygon class="cls-1" points="34.28 15 41.55 15 37.95 5.68 34.28 15"/><polygon points="23.26 0 15.85 0 6 10.51 6 0 0 0 0 25 6 25 6 18.6 9.45 15 16.21 25 23.88 25 13.9 10.34 23.26 0"/><path d="M386.86,237L376,262h6.59l1.84-5h11l1.8,5h6.84l-10.62-25h-6.59Zm-0.58,15,3.67-9.32,3.6,9.32h-7.27Z" transform="translate(-352 -237)"/><polygon points="68.27 15.01 61.42 0 54 0 54 25 60 25 60 8.42 66.18 22 70.35 22 76.4 8.38 76.44 25 82 25 82 0 75.1 0 68.27 15.01"/><rect x="87" width="7" height="25"/><polygon points="105 0 99 0 99 25 116 25 116 19 105 19 105 0"/><polygon points="143.18 0 134 10.51 134 0 127 0 127 19.18 144.2 0 143.18 0"/></svg>