<svg id="Warstwa_1" data-name="Warstwa 1" xmlns="http://www.w3.org/2000/svg" viewBox="0 0 145 25.7"><defs><style>.cls-1{fill:none;}</style></defs><title>logo-right</title><polygon class="cls-1" points="34.61 15.62 41.88 15.62 38.28 6.29 34.61 15.62"/><polygon points="23.59 0.62 17.2 0.62 0 19.8 0 25.62 7 25.62 7 19.22 10.11 15.62 16.54 25.62 24.21 25.62 14.23 10.96 23.59 0.62"/><path d="M446.19,230l-10.87,25h6.59l1.84-5h11l1.8,5h6.84l-10.62-25h-6.59Zm-0.58,15,3.67-9.32,3.6,9.32h-7.27Z" transform="translate(-411 -229.38)"/><polygon points="61 0.62 55 0.62 55 25.62 72 25.62 72 19.62 61 19.62 61 0.62"/><rect x="75" y="0.62" width="6" height="25"/><path d="M509.26,249.47a7.37,7.37,0,0,1,0-14.72,8.62,8.62,0,0,1,6.33,3.28l3.71-4.39a14.63,14.63,0,0,0-10.15-4.25c-7.67,0-13.46,5.47-13.46,12.74s5.65,13,13.25,13a15.21,15.21,0,0,0,10.4-4.61l-3.74-4A9.45,9.45,0,0,1,509.26,249.47Z" transform="translate(-411 -229.38)"/><polygon points="134.72 0.62 127.31 0.62 118 11.12 118 0.62 111 0.62 111 25.62 118 25.62 118 19.22 121.18 15.62 127.67 25.62 135.34 25.62 125.37 10.96 134.72 0.62"/><rect x="138" y="0.62" width="7" height="25"/></svg>